<svg width="15" height="14" viewBox="0 0 15 14" fill="none" xmlns="http://www.w3.org/2000/svg">
<path fill-rule="evenodd" clip-rule="evenodd" d="M4.75415 3.24261V4.03277L3.81152 4.10956C3.48768 4.13562 3.18193 4.26951 2.94316 4.48983C2.70439 4.71014 2.54638 5.00415 2.4944 5.32485C2.4714 5.46842 2.45025 5.61216 2.43096 5.7561C2.42663 5.79093 2.43339 5.82623 2.45027 5.857C2.46715 5.88777 2.4933 5.91243 2.525 5.92749L2.56785 5.94752C5.58883 7.3776 9.20632 7.3776 12.2267 5.94752L12.2696 5.92749C12.3012 5.91235 12.3272 5.88764 12.344 5.85688C12.3608 5.82612 12.3674 5.79086 12.3631 5.7561C12.3442 5.61205 12.3232 5.46829 12.3002 5.32485C12.2482 5.00415 12.0902 4.71014 11.8514 4.48983C11.6127 4.26951 11.3069 4.13562 10.9831 4.10956L10.0404 4.03333V3.24316C10.0405 3.00993 9.95684 2.78442 9.80468 2.60765C9.65252 2.43088 9.44197 2.3146 9.21133 2.27995L8.53245 2.17812C7.77986 2.06563 7.01473 2.06563 6.26213 2.17812L5.58326 2.27995C5.35271 2.31459 5.14224 2.43079 4.99009 2.60744C4.83794 2.78409 4.75423 3.00947 4.75415 3.24261ZM8.40837 3.00333C7.73804 2.90321 7.05655 2.90321 6.38622 3.00333L5.70735 3.10517C5.67441 3.11009 5.64434 3.12668 5.62259 3.1519C5.60084 3.17712 5.58886 3.2093 5.58883 3.24261V3.97434C6.79349 3.90554 8.0011 3.90554 9.20576 3.97434V3.24261C9.20573 3.2093 9.19375 3.17712 9.172 3.1519C9.15025 3.12668 9.12017 3.11009 9.08724 3.10517L8.40837 3.00333Z" fill="white"/>
<path d="M12.4731 6.91697C12.472 6.89898 12.4666 6.88153 12.4572 6.86612C12.4479 6.8507 12.4349 6.83778 12.4195 6.82848C12.4041 6.81917 12.3866 6.81376 12.3686 6.81269C12.3506 6.81163 12.3326 6.81495 12.3162 6.82238C9.21621 8.19514 5.58258 8.19514 2.48259 6.82238C2.46616 6.81495 2.44818 6.81163 2.43019 6.81269C2.41219 6.81376 2.39473 6.81917 2.37929 6.82848C2.36386 6.83778 2.35091 6.8507 2.34157 6.86612C2.33223 6.88153 2.32677 6.89898 2.32567 6.91697C2.26931 7.98229 2.32658 9.05059 2.4965 10.1038C2.54837 10.4246 2.70632 10.7187 2.94511 10.9391C3.18389 11.1596 3.4897 11.2935 3.81362 11.3196L4.8553 11.4031C6.54858 11.54 8.24965 11.54 9.94349 11.4031L10.9852 11.3196C11.3091 11.2935 11.6149 11.1596 11.8537 10.9391C12.0925 10.7187 12.2504 10.4246 12.3023 10.1038C12.4726 9.0493 12.5304 7.98091 12.4731 6.91753" fill="white"/>
</svg>
