<svg width="22" height="22" viewBox="0 0 22 22" fill="none" xmlns="http://www.w3.org/2000/svg">
<path d="M18.6551 21.5595H3.34584C3.16434 21.5595 3.01584 21.4124 3.01584 21.2309C3.01171 20.0126 3.06259 16.9684 3.60296 15.0145C3.74596 14.4975 3.91921 14.0767 4.14884 13.6876C4.34271 13.359 4.90096 12.5354 5.90059 11.9661C6.82321 11.4395 7.70734 11.3611 8.28621 11.3886C8.46771 11.3969 8.60934 11.5522 8.59971 11.7337C8.59009 11.9152 8.43746 12.0555 8.25459 12.0472C7.76371 12.0239 7.01296 12.0912 6.22784 12.5381C5.36571 13.029 4.88446 13.7399 4.71809 14.0217C4.51596 14.3627 4.36884 14.723 4.24096 15.1891C3.76521 16.9092 3.68546 19.5534 3.67721 20.8981H18.3251C18.3182 19.5534 18.2385 16.9092 17.7613 15.1891C17.6321 14.723 17.485 14.3641 17.2842 14.0217C17.1178 13.7399 16.6366 13.029 15.7745 12.5381C14.9893 12.0899 14.2386 12.0239 13.7477 12.0472C13.5648 12.0555 13.4108 11.9152 13.4026 11.7324C13.3943 11.5509 13.5346 11.3955 13.7175 11.3872C14.2963 11.3611 15.1791 11.4381 16.1017 11.9647C17.1013 12.534 17.6596 13.359 17.8535 13.6862C18.0831 14.074 18.2563 14.4961 18.3993 15.0131C18.9397 16.9656 18.9906 20.0099 18.9865 21.2295C18.9837 21.4124 18.8366 21.5595 18.6551 21.5595Z" fill="#3F3C3C"/>
<path d="M11.2917 21.5584C11.2642 21.5584 11.2367 21.5556 11.2092 21.5474C11.0332 21.502 10.926 21.3219 10.9713 21.1459L13.4106 11.635C13.456 11.459 13.6361 11.3518 13.8121 11.3971C13.9881 11.4425 14.0953 11.6226 14.05 11.7986L11.6107 21.3109C11.5722 21.4594 11.4388 21.5584 11.2917 21.5584Z" fill="#3F3C3C"/>
<path d="M10.7172 21.561C10.5701 21.561 10.4367 21.462 10.3982 21.3135L7.948 11.8026C7.90262 11.6266 8.0085 11.4465 8.18587 11.4011C8.36187 11.3557 8.542 11.4616 8.58737 11.639L11.0376 21.1485C11.083 21.3245 10.9771 21.5046 10.7997 21.55C10.7722 21.5582 10.7447 21.561 10.7172 21.561Z" fill="#3F3C3C"/>
<path d="M9.81019 21.5578C9.70156 21.5578 9.59431 21.5042 9.53244 21.4052L9.50219 21.3584L7.19356 17.7353C7.13306 17.6404 7.12481 17.5208 7.17294 17.4191L7.80406 16.0537L6.88144 14.6952C6.83194 14.6223 6.81406 14.5316 6.83056 14.4449L7.38469 11.6661C7.42044 11.4873 7.59369 11.3718 7.77244 11.4076C7.95119 11.4433 8.06669 11.6166 8.03094 11.7953L7.50431 14.4394L8.45444 15.8378C8.51906 15.9341 8.53006 16.0564 8.48056 16.1623L7.84669 17.5332L10.0577 21.0037L10.0879 21.0504C10.1869 21.2044 10.1416 21.4079 9.98756 21.5069C9.93256 21.5413 9.87069 21.5578 9.81019 21.5578ZM12.1889 21.5578C12.1284 21.5578 12.0666 21.5413 12.0116 21.5056C11.8576 21.4079 11.8122 21.2044 11.9112 21.0504L11.9621 20.9707L14.1524 17.5318L13.5186 16.1609C13.4704 16.0551 13.4801 15.9327 13.5447 15.8364L14.4948 14.4381L13.9682 11.7953C13.9324 11.6166 14.0479 11.4433 14.2267 11.4076C14.4054 11.3718 14.5787 11.4873 14.6144 11.6661L15.1686 14.4449C15.1864 14.5316 15.1672 14.6223 15.1177 14.6952L14.1951 16.0537L14.8262 17.4191C14.8729 17.5208 14.8647 17.6404 14.8056 17.7353L12.4667 21.4052C12.4048 21.5042 12.2976 21.5578 12.1889 21.5578ZM11.0051 11.7073C9.85831 11.7073 8.78031 11.2604 7.96906 10.4492C7.15781 9.63794 6.71094 8.55994 6.71094 7.41319V5.73844C6.71094 5.62157 6.77281 5.51432 6.87181 5.45519C6.87594 5.45244 7.32969 5.17744 7.82194 4.68657C7.92781 4.58069 8.09419 4.55869 8.22344 4.63569C8.22894 4.63844 8.84219 4.99182 9.83906 5.17194C11.1701 5.41257 12.5189 5.24757 13.8486 4.68107C13.9709 4.62882 14.1112 4.65494 14.2074 4.74707C14.3394 4.87357 14.7616 5.24482 15.1301 5.44969C15.2346 5.50744 15.2992 5.61882 15.2992 5.73844V7.41319C15.2992 8.55994 14.8523 9.63794 14.0424 10.4492C13.2298 11.2604 12.1518 11.7073 11.0051 11.7073ZM7.37231 5.91857V7.41457C7.37231 9.41794 9.00169 11.0473 11.0051 11.0473C13.0084 11.0473 14.6378 9.41794 14.6378 7.41457V5.92544C14.4646 5.81544 14.2789 5.67794 14.0809 5.51569C14.0149 5.46207 13.9572 5.41119 13.9104 5.36994C13.1707 5.66419 12.4131 5.84569 11.6554 5.91032C10.9954 5.96669 10.3327 5.93507 9.68919 5.81682C8.94669 5.67932 8.40081 5.45794 8.11481 5.32182C7.81094 5.60369 7.53594 5.80582 7.37231 5.91857Z" fill="#3F3C3C"/>
<path d="M7.04162 6.06932C6.91787 6.06932 6.80099 6.00057 6.74324 5.88094C6.53699 5.44782 6.50399 4.97619 6.47512 4.56094C6.45174 4.21994 6.42287 3.79644 6.53012 3.39082C6.62224 3.04019 6.85324 2.66482 7.23549 2.24269C7.29462 2.17807 7.35649 2.11344 7.42112 2.05157C8.45237 1.05607 10.156 0.662817 10.4874 0.594067C11.1336 0.459317 11.7524 0.411192 12.3244 0.451067C12.7272 0.478567 13.0682 0.529442 13.3666 0.605067C13.7475 0.701317 14.0459 0.886942 14.2287 1.14132C14.3236 1.27469 14.3841 1.41494 14.4364 1.53869C14.4914 1.66657 14.5381 1.77794 14.6124 1.85632C14.7031 1.95257 14.8214 2.03782 14.9451 2.12582C15.0812 2.22344 15.2229 2.32382 15.3521 2.45582C15.6725 2.78169 16.0341 3.32757 16.0891 3.87757C16.14 4.38632 15.9159 4.83319 15.7137 5.16594C15.7082 5.17557 15.6945 5.19894 15.6752 5.23194C15.3452 5.80669 15.2559 5.93182 15.1775 5.99507C15.0372 6.11057 14.8296 6.09132 14.7127 5.94969C14.6027 5.81632 14.6151 5.62107 14.7375 5.50282C14.7719 5.46019 14.8626 5.31994 15.1019 4.90194C15.128 4.85519 15.1404 4.83457 15.1472 4.82219C15.2957 4.57744 15.4621 4.25569 15.4305 3.94219C15.3947 3.58607 15.128 3.17082 14.8791 2.91644C14.7911 2.82569 14.6784 2.74594 14.5601 2.66207C14.4144 2.55894 14.2645 2.45032 14.1284 2.30594C13.9757 2.14232 13.8974 1.95944 13.8286 1.79719C13.7846 1.69544 13.7434 1.59919 13.6911 1.52494C13.577 1.36544 13.3639 1.28432 13.2044 1.24444C12.9459 1.17844 12.6434 1.13444 12.279 1.10969C11.7661 1.07394 11.2092 1.11794 10.6221 1.24032C10.3224 1.30219 8.77962 1.65694 7.88037 2.52594C7.82674 2.57819 7.77449 2.63182 7.72499 2.68544C7.41974 3.02232 7.23274 3.31657 7.16812 3.55857C7.08837 3.85832 7.11312 4.20757 7.13374 4.51419C7.15987 4.88957 7.18599 5.27732 7.33862 5.59632C7.41699 5.76132 7.34824 5.95794 7.18324 6.03632C7.13787 6.05969 7.08974 6.06932 7.04162 6.06932Z" fill="#3F3C3C"/>
<path d="M11.0221 13.9503C10.9561 13.9503 10.8915 13.9311 10.8351 13.8912L8.07959 11.9882C7.97234 11.9139 7.91871 11.7833 7.94346 11.6554L8.17721 10.4248C8.21159 10.2461 8.38346 10.1278 8.56221 10.1622C8.74096 10.1966 8.85921 10.3684 8.82484 10.5472L8.63096 11.5661L11.0207 13.2174L13.3637 11.5688L13.1712 10.5554C13.1368 10.3767 13.2551 10.2034 13.4338 10.1691C13.6126 10.1347 13.7858 10.2529 13.8202 10.4317L14.0526 11.6541C14.0773 11.7819 14.0237 11.9112 13.9178 11.9854L11.2118 13.8898C11.1555 13.9297 11.0895 13.9503 11.0221 13.9503Z" fill="#3F3C3C"/>
<path d="M11.4824 15.4693H10.5364C10.403 15.4693 10.282 15.3896 10.2311 15.2659L9.81451 14.258C9.74438 14.0888 9.82413 13.8963 9.99326 13.8262C10.161 13.7561 10.3549 13.8358 10.425 14.005L10.7578 14.8093H11.2638L11.5965 14.005C11.6666 13.8372 11.8591 13.7561 12.0283 13.8262C12.1974 13.8963 12.2771 14.0888 12.207 14.258L11.789 15.2659C11.7368 15.3896 11.6158 15.4693 11.4824 15.4693Z" fill="#3F3C3C"/>
<path d="M10.0847 19.0931C10.0709 19.0931 10.0572 19.0917 10.0434 19.0903C9.86194 19.067 9.73407 18.902 9.75744 18.7218L10.2126 15.1001C10.2359 14.9186 10.4009 14.7907 10.5811 14.8141C10.7626 14.8375 10.8904 15.0025 10.8671 15.1826L10.4119 18.8057C10.3913 18.9707 10.2497 19.0931 10.0847 19.0931ZM9.77532 21.5598C9.76157 21.5598 9.74782 21.5585 9.73407 21.5571C9.55257 21.5337 9.42469 21.3687 9.44807 21.1886L9.45494 21.135C9.47282 20.97 9.61307 20.8421 9.78219 20.8421C9.96507 20.8421 10.1122 20.9892 10.1122 21.1721C10.1122 21.1858 10.1108 21.1996 10.1094 21.2133L10.1026 21.2725C10.0819 21.4375 9.93894 21.5598 9.77532 21.5598ZM12.2503 21.5598C12.0867 21.5598 11.9437 21.4375 11.9231 21.2711L11.9107 21.1707C11.8873 20.9892 12.0166 20.8242 12.1967 20.8022C12.3782 20.7802 12.5432 20.9081 12.5652 21.0882L12.5776 21.1886C12.6009 21.3701 12.4717 21.5351 12.2916 21.5571C12.2778 21.5585 12.2641 21.5598 12.2503 21.5598ZM11.9354 19.0477C11.7718 19.0477 11.6288 18.9253 11.6082 18.759L11.1586 15.1798C11.1352 14.9983 11.2644 14.8333 11.4446 14.8113C11.6247 14.788 11.7911 14.9172 11.8131 15.0973L12.2627 18.6765C12.2861 18.858 12.1568 19.023 11.9767 19.045C11.9629 19.0477 11.9492 19.0477 11.9354 19.0477Z" fill="#3F3C3C"/>
<path d="M9.04893 15.0708C8.93343 15.0708 8.82206 15.0103 8.76156 14.9031C8.67218 14.7449 8.72718 14.5428 8.88531 14.4534L9.95918 13.8443L10.8598 13.3328C11.0179 13.2421 11.2201 13.2971 11.3108 13.4552C11.4016 13.6133 11.3466 13.8154 11.1884 13.9062L11.1761 13.9131L10.2851 14.4191L9.21118 15.0282C9.16031 15.0571 9.10531 15.0708 9.04893 15.0708Z" fill="#3F3C3C"/>
<path d="M12.8551 15.0024C12.8001 15.0024 12.7438 14.9886 12.6929 14.9597L10.838 13.9065C10.6799 13.8157 10.6249 13.615 10.7156 13.4555C10.8064 13.296 11.0071 13.2424 11.1666 13.3331L11.179 13.34L13.0188 14.385C13.1769 14.4744 13.2333 14.6765 13.1425 14.8346C13.082 14.9419 12.9706 15.0024 12.8551 15.0024Z" fill="#3F3C3C"/>
</svg>
