<svg width="14" height="14" viewBox="0 0 14 14" fill="none" xmlns="http://www.w3.org/2000/svg">
<path d="M8.51344 1.50823C8.29177 1.28656 7.99427 1.16406 7.6851 1.16406H3.5026C2.86094 1.16406 2.33594 1.68906 2.33594 2.33073V11.6641C2.33594 12.3057 2.8551 12.8307 3.49677 12.8307H10.5026C11.1443 12.8307 11.6693 12.3057 11.6693 11.6641V5.14823C11.6693 4.83906 11.5468 4.54156 11.3251 4.32573L8.51344 1.50823ZM8.7526 10.4974H5.2526C4.93177 10.4974 4.66927 10.2349 4.66927 9.91406C4.66927 9.59323 4.93177 9.33073 5.2526 9.33073H8.7526C9.07344 9.33073 9.33594 9.59323 9.33594 9.91406C9.33594 10.2349 9.07344 10.4974 8.7526 10.4974ZM8.7526 8.16406H5.2526C4.93177 8.16406 4.66927 7.90156 4.66927 7.58073C4.66927 7.2599 4.93177 6.9974 5.2526 6.9974H8.7526C9.07344 6.9974 9.33594 7.2599 9.33594 7.58073C9.33594 7.90156 9.07344 8.16406 8.7526 8.16406ZM7.58594 4.66406V2.03906L10.7943 5.2474H8.16927C7.84844 5.2474 7.58594 4.9849 7.58594 4.66406Z" fill="white"/>
</svg>
