<svg width="15" height="15" viewBox="0 0 15 15" fill="none" xmlns="http://www.w3.org/2000/svg">
<path d="M11.6274 7.31586C11.6301 7.52118 11.5874 7.72456 11.5024 7.91145C11.413 8.10919 11.276 8.28072 11.1033 8.41175L5.35586 12.8846C5.15353 13.0389 4.91223 13.1338 4.65901 13.1586H4.52203C4.31499 13.1587 4.11089 13.1097 3.92644 13.0157C3.70262 12.9058 3.51321 12.7366 3.3788 12.5266C3.2444 12.3166 3.17013 12.0738 3.16408 11.8245V3.48621C3.16284 3.24008 3.23096 2.99858 3.36062 2.78937C3.4861 2.58017 3.66584 2.40882 3.88079 2.29348C4.09575 2.17814 4.3379 2.12311 4.58159 2.13421C4.82697 2.14613 5.06521 2.22236 5.27247 2.35458L11.0259 6.19019C11.201 6.31169 11.3475 6.47012 11.4547 6.65476C11.5679 6.85726 11.6274 7.08418 11.6274 7.31586Z" fill="#0C0C0C"/>
</svg>
